<svg width="234" height="256" viewBox="0 0 234 256" fill="none" xmlns="http://www.w3.org/2000/svg">
<path d="M96.3857 69.1871C101.06 69.1871 104.848 73.0171 104.848 77.7417V85.1379C104.848 89.8625 101.06 93.6926 96.3857 93.6926H92.2864C87.6125 93.6926 83.8236 97.5226 83.8236 102.247V178.258C83.8236 182.983 80.0347 186.813 75.3609 186.813H67.2808C62.6069 186.813 58.818 182.983 58.818 178.258V102.247C58.818 97.5221 62.607 93.6921 67.2808 93.6921H71.3801C76.0539 93.6921 79.8428 89.8621 79.8428 85.1375V77.7417C79.8428 73.0171 83.6317 69.1871 88.3056 69.1871H96.3857Z" fill="white"/>
<path d="M146.566 69.1871C151.24 69.1871 155.028 73.0171 155.028 77.7417V85.1375C155.028 89.8621 158.817 93.6921 163.491 93.6921H166.719C171.393 93.6921 175.182 97.5222 175.182 102.247V178.258C175.182 182.983 171.393 186.813 166.719 186.813H158.639C153.965 186.813 150.176 182.983 150.176 178.258V102.247C150.176 97.5226 146.387 93.6926 141.713 93.6926H138.486C133.812 93.6926 130.023 89.8625 130.023 85.1379V77.7417C130.023 73.0171 133.812 69.1871 138.486 69.1871H146.566Z" fill="white"/>
<path d="M121.213 116.098C125.887 116.098 129.676 119.928 129.676 124.653V155.154C129.676 159.879 125.887 163.709 121.213 163.709H113.133C108.459 163.709 104.67 159.879 104.67 155.154V124.653C104.67 119.928 108.459 116.098 113.133 116.098H121.213Z" fill="white"/>
<path fill-rule="evenodd" clip-rule="evenodd" d="M127.408 2.48362C120.856 -0.82787 113.144 -0.827875 106.592 2.48362L13.5011 49.5339C5.61664 53.5189 0.63623 61.6648 0.63623 70.5755V185.425C0.63623 194.335 5.61664 202.481 13.5011 206.466L106.592 253.516C113.144 256.828 120.856 256.828 127.408 253.516L220.499 206.466C228.383 202.481 233.363 194.335 233.363 185.425V70.5755C233.363 61.6648 228.383 53.5189 220.499 49.5339L127.408 2.48362ZM23.909 70.5755L117 23.5252L210.091 70.5755V185.425L117 232.475L23.909 185.425V70.5755Z" fill="white"/>
</svg>
